<?xml version="1.0" encoding="UTF-8" standalone="no"?>
<!DOCTYPE svg PUBLIC "-//W3C//DTD SVG 1.1//EN" "http://www.w3.org/Graphics/SVG/1.1/DTD/svg11.dtd">
<svg width="100%" height="100%" viewBox="0 0 939 377" version="1.1" xmlns="http://www.w3.org/2000/svg" xmlns:xlink="http://www.w3.org/1999/xlink" xml:space="preserve" xmlns:serif="http://www.serif.com/" style="fill-rule:evenodd;clip-rule:evenodd;stroke-linejoin:round;stroke-miterlimit:2;">
    <g id="画板1" transform="matrix(1,0,0,1,-62.522809,-96.953581)">
        <rect x="62.523" y="96.954" width="938" height="376" style="fill:none;"/>
        <g transform="matrix(1,0,0,1,0.522809,0.953581)">
            <path d="M295.529,375.367C295.168,375.38 294.801,375.388 294.453,375.388C285.715,375.402 276.962,375.088 268.243,375.499C266.929,375.561 265.892,375.643 265.21,375.093C264.634,374.629 264.614,373.772 264.518,372.686C264.395,371.295 263.871,369.928 263.38,368.075L263.378,368.068C259.799,354.726 256.317,341.788 252.842,328.875L251.645,324.429L247.116,325.256C243.396,325.934 241.928,327.845 240.299,329.494C226.55,343.41 212.394,356.962 199.29,371.462C194.594,376.657 189.396,375.948 183.75,375.161C149.899,370.444 120.905,340.934 116.649,306.997C110.903,261.175 140.524,221.142 186.366,214.128C212.135,210.186 234.705,218.203 253.892,235.682C246.198,243.284 238.514,250.899 230.984,258.662C230.762,258.479 230.537,258.29 230.357,258.132C215.559,245.161 198.61,241.601 180.218,248.485C161.566,255.466 150.629,269.68 148.565,289.293C146.344,310.406 154.701,327.203 173.307,338.193C178.111,341.03 181.116,341.802 183.749,341.367C186.283,340.95 188.897,339.265 192.75,335.366C206.457,321.496 220.228,307.688 233.834,293.72C235.932,291.566 238.202,290.567 241.209,290.629C251.091,290.834 260.982,290.798 270.866,290.658C271.942,290.643 272.796,290.659 273.4,291.147C274.073,291.69 274.337,292.626 274.633,293.809C281.388,320.764 288.395,347.656 295.335,374.564C295.403,374.825 295.468,375.096 295.529,375.367Z" style="fill:rgb(42,37,34);"/>
        </g>
        <g transform="matrix(1,0,0,1,0.522809,0.953581)">
            <path d="M379.526,263.419C395.909,266.084 407.26,274.24 412.197,290.141C412.337,290.589 412.449,291.051 412.51,291.515C412.536,291.71 412.508,291.911 412.479,292.113C405.9,295.382 398.863,293.692 394.677,287.802C388.638,279.306 377.826,275.51 367.033,278.116C356.679,280.616 348.403,290.188 346.943,301.376C344.352,321.226 358.33,336.288 377.544,334.35C384.767,333.622 390.893,330.349 394.457,324.179C396.96,319.846 399.988,318.928 404.486,319.039C407.385,319.111 409.473,319.234 410.85,319.616C411.63,319.832 412.16,320.114 412.43,320.568C412.7,321.022 412.695,321.62 412.509,322.409C412.18,323.805 411.273,325.706 409.905,328.313C402.096,343.192 385.155,351.209 367.241,348.529C349.486,345.872 335.325,332.801 332.222,316.181C327.333,289.989 341.943,267.716 366.739,263.633C370.836,262.958 374.96,263.187 379.526,263.419Z" style="fill:rgb(42,37,34);"/>
        </g>
        <g transform="matrix(1,0,0,1,0.522809,0.953581)">
            <path d="M451.965,293.966C462.246,285.373 473.475,283.928 485.385,288.603C497.708,293.441 502.397,303.65 503.573,316.086C503.761,318.085 503.617,319.57 502.818,320.534C502.024,321.489 500.61,321.881 498.376,321.825C486.717,321.533 475.047,321.694 463.381,321.723C461.508,321.728 459.544,321.31 457.263,322.781C457.095,322.889 457.007,323.088 457.041,323.286C457.991,328.818 461.23,332.865 466.359,334.974C472.597,337.539 479.575,337.705 484.18,332.529C487.329,328.989 490.707,328.274 494.198,328.234C496.45,328.208 498.749,328.456 501.068,328.447C501.039,331.424 499.834,334.473 497.822,337.263C494.592,341.741 489.281,345.551 483.285,347.339C469.074,351.578 453.85,346.397 446.894,334.92C438.871,321.682 440.801,305.41 451.965,293.966ZM474.452,310.164C474.472,310.165 474.492,310.164 474.511,310.163C478.727,309.863 483.06,310.801 487.274,309.434C487.533,309.349 487.678,309.074 487.598,308.813C485.481,301.827 480.334,298.462 472.503,298.609C465.095,298.748 459.985,302.387 458.273,309.004C458.239,309.135 458.26,309.273 458.33,309.389C458.4,309.504 458.514,309.586 458.646,309.616C463.573,310.747 468.551,309.89 474.452,310.164Z" style="fill:rgb(42,37,34);"/>
        </g>
        <g transform="matrix(1,0,0,1,0.522809,0.953581)">
            <path d="M518.737,339.274C506.307,323.165 508.287,302.765 523.123,291.898C534.218,283.77 550.987,284.232 561.623,292.96C572.121,301.573 575.692,318.236 569.815,331.124C563.951,343.984 550.289,350.956 536.128,348.369C529.502,347.159 523.676,344.449 518.737,339.274ZM530.957,303.25C530.926,303.271 530.898,303.294 530.872,303.321C530.045,304.183 529.056,304.944 528.424,305.931C524.383,312.248 523.572,318.941 526.692,325.847C529.121,331.223 533.279,334.574 539.276,335.215C547.292,336.073 553.815,332.355 556.736,325.428C560.003,317.682 558.136,308.183 552.412,303.275C546.673,298.354 538.683,298.135 530.957,303.25Z" style="fill:rgb(42,37,34);"/>
        </g>
        <g transform="matrix(1,0,0,1,0.522809,0.953581)">
            <path d="M432.699,265.287C433.461,265.445 433.972,265.703 434.306,266.044C434.682,266.43 434.816,266.915 434.868,267.423C434.93,268.026 434.879,268.662 434.88,269.251C434.928,294.206 434.899,319.161 434.977,344.117C434.981,345.329 434.805,346.169 434.287,346.717C433.767,347.268 432.928,347.501 431.706,347.59C428.496,347.824 426.227,347.98 424.623,347.783C423.666,347.666 422.967,347.429 422.466,346.966C421.965,346.504 421.673,345.825 421.482,344.877C421.161,343.289 421.143,341.002 421.142,337.755C421.133,315.933 421.129,294.111 421.131,272.289C421.131,270.412 421.13,269.004 421.249,267.948C421.353,267.025 421.531,266.399 421.945,265.989C422.267,265.67 422.724,265.496 423.354,265.381C424.46,265.18 426.039,265.186 428.293,265.188C429.61,265.189 430.927,265.218 432.699,265.287Z" style="fill:rgb(42,37,34);"/>
        </g>
        <g transform="matrix(1,0,0,1,0.522809,0.953581)">
            <path d="M650.078,319.442C650.065,319.412 650.048,319.382 650.029,319.355C646.868,314.903 642.178,314.134 637.787,312.912C631.585,311.187 625.186,310.141 619.435,306.984C611.639,302.704 607.229,296.302 607.269,287.304C607.309,278.221 611.309,271.174 619.504,267.16C631.034,261.514 642.676,261.488 653.792,268.344C659.803,272.05 663.073,277.782 664.014,284.806C664.074,285.257 664.173,285.711 664.212,286.158C664.261,286.708 664.219,287.25 663.789,287.744C663.396,288.197 662.655,288.468 661.732,288.636C660.19,288.918 658.158,288.864 656.161,288.563C654.164,288.263 652.2,287.715 650.795,286.991C649.951,286.556 649.312,286.075 649.055,285.523C645.019,276.839 633.703,273.96 625.992,279.656C621.006,283.338 621.391,290.598 626.829,293.857C630.647,296.145 635.021,296.87 639.253,297.937C643.904,299.109 648.546,300.223 652.931,302.274C661.839,306.438 666.406,313.594 666.468,323.178C666.53,332.632 662.587,340.384 653.814,344.735C641.797,350.694 629.625,350.393 617.862,344.034C610.472,340.038 606.813,333.179 605.253,325.098C604.985,323.713 605.017,322.647 605.551,321.962C606.075,321.288 607.061,321.047 608.573,321.162C610.589,321.317 612.647,321.357 614.653,321.139C616.347,320.956 617.631,321.135 618.639,321.813C619.658,322.499 620.384,323.678 620.999,325.416C622.864,330.68 628.036,334.081 633.676,335.1C639.312,336.118 645.392,334.753 649.061,330.578C651.922,327.321 651.917,323.611 650.078,319.442Z" style="fill:rgb(42,37,34);"/>
        </g>
        <g transform="matrix(1,0,0,1,0.522809,0.953581)">
            <path d="M792.898,346.155C782.625,341.653 776.851,331.899 775.607,321.544C774.36,311.175 777.65,300.192 785.55,293.246C793.865,285.936 806.762,283.855 816.785,288.614C818.555,289.454 820.286,290.374 822.412,291.448C822.546,291.516 822.704,291.519 822.842,291.457C822.98,291.395 823.082,291.275 823.12,291.129C824.879,284.47 823.681,278.094 824.156,271.829C824.244,270.667 823.91,269.227 823.937,267.965C823.95,267.334 824.053,266.751 824.427,266.309C824.67,266.022 825.026,265.802 825.527,265.656C829.207,264.582 833.268,264.627 837.036,265.8C837.526,265.953 837.691,266.382 837.767,266.865C837.87,267.52 837.803,268.28 837.803,268.91C837.823,293.882 837.801,318.853 837.858,343.825C837.861,345.384 837.539,346.568 836.681,347.161C836.121,347.548 835.349,347.661 834.342,347.5C832.66,347.232 830.718,347.636 828.888,347.729C827.652,347.792 826.468,347.712 825.488,347.068C824.502,346.42 823.745,345.209 823.3,343.084C823.265,342.919 823.15,342.783 822.993,342.721C822.836,342.659 822.659,342.681 822.522,342.778C813.097,349.447 803.432,350.443 792.91,346.16L792.898,346.155ZM819.485,304.075C819.468,304.055 819.45,304.037 819.43,304.02C812.114,297.881 803.793,297.269 796.867,302.317C790.04,307.292 787.701,316.899 791.276,325.41C794.334,332.69 800.673,336.139 809.654,335.348C816.61,334.736 822.575,329.579 823.854,322.448C824.994,316.085 824.529,309.859 819.485,304.075Z" style="fill:rgb(42,37,34);"/>
        </g>
        <g transform="matrix(1,0,0,1,0.522809,0.953581)">
            <path d="M928.15,304.876C933.076,321.201 929.038,335.547 917.463,343.509C903.013,353.449 881.712,349.033 873.016,334.283C863.574,318.269 868.895,297.661 884.577,289.602C901.019,281.151 920.685,287.908 928.15,304.876ZM915.175,324.201C915.186,324.178 915.195,324.153 915.203,324.128C917.106,317.573 916.778,311.243 912.583,305.639C908.176,299.752 899.868,297.75 893.069,300.597C886.043,303.54 881.972,311.305 882.893,320.117C883.701,327.858 889.214,334.026 896.281,335.139C900.507,335.805 904.196,335.266 907.35,333.462C910.489,331.668 913.104,328.613 915.175,324.201Z" style="fill:rgb(42,37,34);"/>
        </g>
        <g transform="matrix(1,0,0,1,0.522809,0.953581)">
            <path d="M728.911,318.762L728.912,318.792C729.06,321.27 729.036,323.305 729.379,325.275C730.042,329.076 731.321,331.71 733.335,333.36C735.354,335.013 738.127,335.693 741.835,335.507C745.49,335.323 748.521,334.097 750.661,332.025C752.81,329.945 754.07,327.008 754.144,323.379C754.36,312.885 754.333,302.381 754.162,291.886C754.134,290.197 754.41,289.001 755.138,288.268C755.858,287.544 756.995,287.309 758.596,287.425C758.779,287.438 758.964,287.428 759.147,287.422C762.117,287.328 764.195,287.258 765.648,287.476C766.505,287.604 767.124,287.826 767.561,288.244C767.995,288.661 768.238,289.263 768.393,290.103C768.658,291.53 768.65,293.581 768.646,296.511C768.629,311.001 768.635,325.49 768.616,339.979C768.613,342.356 768.614,344.023 768.4,345.189C768.276,345.859 768.088,346.345 767.749,346.686C767.411,347.025 766.931,347.21 766.271,347.328C765.117,347.535 763.469,347.516 761.118,347.492C759.951,347.48 758.707,347.607 757.556,347.537C756.523,347.474 755.565,347.255 754.848,346.541C754.22,345.915 753.789,344.923 753.61,343.39C753.59,343.217 753.481,343.066 753.321,342.993C753.162,342.921 752.977,342.936 752.832,343.035C747.877,346.41 743.139,348.774 737.496,348.811C725.025,348.893 715.782,340.737 715.339,328.271C714.901,315.966 715.281,303.634 715.143,291.315C715.127,289.843 715.415,288.89 716.081,288.298C716.765,287.689 717.804,287.469 719.174,287.384C722.203,287.197 724.324,287.055 725.809,287.224C726.682,287.324 727.314,287.524 727.76,287.931C728.204,288.336 728.451,288.936 728.612,289.781C728.887,291.223 728.885,293.313 728.89,296.309C728.902,303.637 728.901,310.965 728.911,318.762Z" style="fill:rgb(42,37,34);"/>
        </g>
        <g transform="matrix(1,0,0,1,0.522809,0.953581)">
            <path d="M689.346,345.764C681.376,341.775 679.775,334.74 679.536,327.17C679.31,320.032 679.354,312.88 679.513,305.739C679.566,303.366 679.18,301.557 677.933,300.592C677.091,299.941 675.837,299.642 673.989,299.865C672.715,300.019 671.814,299.873 671.199,299.417C670.263,298.724 670.036,297.377 670.057,295.607C670.077,293.971 669.979,292.304 670.166,290.864C670.335,289.565 670.73,288.455 671.769,287.796C672.7,287.206 674.106,286.981 676.217,287.214C677.113,287.314 677.756,287.101 678.224,286.721C678.682,286.349 678.977,285.801 679.152,285.162C679.356,284.414 679.397,283.538 679.408,282.74C679.468,278.412 679.551,274.082 679.508,269.753C679.494,268.261 679.772,267.123 680.47,266.388C681.159,265.663 682.24,265.362 683.757,265.446C684.267,265.475 684.781,265.438 685.293,265.427C687.943,265.37 689.798,265.326 691.097,265.541C691.852,265.665 692.399,265.872 692.785,266.255C693.173,266.64 693.39,267.194 693.532,267.962C693.775,269.279 693.776,271.168 693.785,273.866C693.788,274.697 693.785,275.528 693.786,276.36C693.789,279.341 693.795,281.435 694.061,282.924C694.256,284.015 694.594,284.805 695.134,285.396C695.677,285.989 696.428,286.391 697.49,286.666C698.935,287.04 700.999,287.189 703.948,287.385C705.59,287.494 706.796,287.818 707.43,288.737C707.849,289.345 708.001,290.195 707.906,291.36C707.77,293.036 707.775,294.737 707.873,296.417C707.95,297.748 707.705,298.633 707.083,299.174C706.439,299.734 705.443,299.918 704.147,299.925C700.983,299.943 697.73,299.366 694.185,300.776C693.994,300.852 693.869,301.036 693.869,301.241C693.869,310.46 693.656,319.755 693.96,329.033C694.009,330.533 694.4,331.687 695.031,332.578C696.469,334.61 699.207,335.277 702.232,335.414C703.29,335.463 704.625,335.154 705.777,335.223C706.252,335.251 706.692,335.345 707.044,335.604C707.387,335.857 707.631,336.269 707.761,336.896C708.432,340.15 708.378,343.688 707.262,346.954C707.119,347.373 706.762,347.556 706.355,347.662C705.814,347.801 705.184,347.802 704.635,347.821C699.553,348.001 694.459,348.241 689.346,345.764Z" style="fill:rgb(42,37,34);"/>
        </g>
        <g transform="matrix(1,0,0,1,0.522809,0.953581)">
            <path d="M854.058,287.391C856.464,287.405 858.152,287.413 859.337,287.623C860.026,287.745 860.525,287.928 860.878,288.258C861.322,288.673 861.515,289.305 861.628,290.234C861.756,291.298 861.756,292.716 861.757,294.607C861.764,310.413 861.625,326.22 861.82,342.023C861.846,344.154 861.495,345.646 860.581,346.552C859.676,347.45 858.245,347.734 856.211,347.571C854.383,347.425 852.535,347.53 850.697,347.487C849.542,347.459 848.675,347.186 848.105,346.597C847.534,346.006 847.28,345.116 847.281,343.927C847.307,326.293 847.311,308.658 847.277,291.024C847.274,289.638 847.547,288.769 848.06,288.239C848.559,287.724 849.265,287.551 850.06,287.48C851.284,287.37 852.706,287.516 854.049,287.391L854.058,287.391Z" style="fill:rgb(42,37,34);"/>
        </g>
        <g transform="matrix(1,0,0,1,0.522809,0.953581)">
            <path d="M847.233,272.996C847.343,271.516 847.084,269.94 847.201,268.599C847.302,267.445 847.718,266.486 849.118,266.026C852.734,264.839 857.2,264.022 860.199,266.284C861.895,267.562 862.28,269.352 862.231,271.268C862.177,273.339 861.626,275.558 861.473,277.533C861.425,278.157 861.256,278.612 860.982,278.938C860.566,279.434 859.928,279.62 859.228,279.711C858.318,279.829 857.303,279.771 856.408,279.808C855.422,279.848 854.434,279.828 853.447,279.823C851.905,279.814 850.736,279.796 849.846,279.662C849.079,279.547 848.542,279.357 848.177,278.958C847.798,278.545 847.609,277.931 847.48,277.042C847.335,276.044 847.284,274.729 847.233,272.996Z" style="fill:rgb(42,37,34);"/>
        </g>
    </g>
</svg>
